<svg width="61" height="63" viewBox="0 0 61 63" fill="none" xmlns="http://www.w3.org/2000/svg">
<path d="M43.3003 1.94751L32.6865 18.4039H37.9464L49.7812 1.94751H43.3003Z" fill="#006737"/>
<path d="M37.9466 1.94751L27.4268 18.4039H32.6867L43.3004 1.94751H37.9466Z" fill="#FFCB04"/>
<path d="M32.6866 1.94751L22.1667 18.4039H27.4267L37.9465 1.94751H32.6866Z" fill="#EE1E23"/>
<path d="M30.0567 60.3725C40.7428 60.3725 49.4056 51.3917 49.4056 40.3132C49.4056 29.2348 40.7428 20.254 30.0567 20.254C19.3706 20.254 10.7078 29.2348 10.7078 40.3132C10.7078 51.3917 19.3706 60.3725 30.0567 60.3725Z" fill="#FFCE31"/>
<path d="M20.3822 14.7036C19.9126 14.7036 19.5369 15.0931 19.5369 15.58V23.7595C19.5369 24.2464 19.9126 24.6359 20.3822 24.6359H39.7311C40.2008 24.6359 40.5765 24.2464 40.5765 23.7595V15.58C40.5765 15.0931 40.2008 14.7036 39.7311 14.7036H20.3822ZM38.8858 21.1304C38.8858 21.6172 38.5101 22.0067 38.0405 22.0067H22.1668C21.6972 22.0067 21.3215 21.6172 21.3215 21.1304V17.4301C21.3215 16.9432 21.6972 16.5537 22.1668 16.5537H38.0405C38.5101 16.5537 38.8858 16.9432 38.8858 17.4301V21.1304Z" fill="#FFCE31"/>
<path opacity="0.5" d="M13.4315 42.6502C13.4315 31.7442 21.5092 22.8831 31.8411 22.1041C31.3715 22.1041 30.8079 22.0067 30.3383 22.0067C20.476 22.0067 12.4922 30.2836 12.4922 40.6054C12.4922 43.624 13.2436 46.5452 14.4647 49.077C13.8072 47.0321 13.4315 44.8899 13.4315 42.6502Z" fill="#EE1E23"/>
<path opacity="0.33" d="M37.4769 55.7959C46.2121 49.7586 48.842 37.9762 43.77 28.823L44.6153 29.9915C50.0631 38.3657 47.8088 49.7586 39.6372 55.5037C37.1951 57.2565 34.4712 58.2302 31.7473 58.5224C33.8137 57.9381 35.6922 57.0617 37.4769 55.7959Z" fill="white"/>
<path d="M22.1668 18.4039H27.4267L16.813 1.94751H10.332L22.1668 18.4039Z" fill="#EE1E23"/>
<path d="M27.4267 18.4039H32.6866L22.1668 1.94751H16.813L27.4267 18.4039Z" fill="#FFCB04"/>
<path opacity="0.5" d="M30.9019 4.67401L28.272 8.76376L34.4711 18.4039H37.9464L38.8857 17.0406L30.9019 4.67401Z" fill="#3E4347"/>
<path d="M32.6866 18.4039H37.9465L27.4267 1.94751H22.1667L32.6866 18.4039Z" fill="#006737"/>
<path opacity="0.5" d="M25.1724 34.276V35.2498C26.1116 35.2498 26.957 35.055 27.8023 34.6655V33.3023C27.0509 33.8865 26.2056 34.1786 25.1724 34.276ZM31.3715 27.9466H32.2169V48.9796H31.3715V27.9466ZM34.9408 49.856V52.5825H25.1724V53.5563H35.7861V49.856H34.9408Z" fill="#EE1E23"/>
<path opacity="0.33" d="M32.2169 48.9796H34.8469V49.856H32.2169V48.9796ZM28.7416 27.9466H31.3716V27.0703H27.8024C27.8024 29.1151 26.2056 30.7705 24.2332 30.7705V34.3734C24.5149 34.3734 24.7967 34.3734 25.0785 34.276V31.5495C27.1449 31.6469 28.7416 29.9915 28.7416 27.9466ZM28.7416 49.856V34.276C28.4599 34.4708 28.1781 34.5681 27.8963 34.7629V48.9796H24.3271V52.5825H25.1724V49.856H28.7416Z" fill="white"/>
</svg>
