<svg width="64" height="64" viewBox="0 0 64 64" fill="none" xmlns="http://www.w3.org/2000/svg">
<path d="M46.1 2L34.8 18.9H40.4001L53 2H46.1Z" fill="#006737"/>
<path d="M40.4 2L29.2 18.9H34.7999L46.0999 2H40.4Z" fill="#FFCB04"/>
<path d="M34.8001 2L23.6001 18.9H29.2001L40.4001 2H34.8001Z" fill="#EE1E23"/>
<path d="M31.9999 62C43.377 62 52.5999 52.7771 52.5999 41.4C52.5999 30.0229 43.377 20.8 31.9999 20.8C20.6228 20.8 11.3999 30.0229 11.3999 41.4C11.3999 52.7771 20.6228 62 31.9999 62Z" fill="#D3976E"/>
<path d="M21.6998 15.1C21.1998 15.1 20.7998 15.5 20.7998 16V24.4C20.7998 24.9 21.1998 25.3 21.6998 25.3H42.2998C42.7998 25.3 43.1998 24.9 43.1998 24.4V16C43.1998 15.5 42.7998 15.1 42.2998 15.1H21.6998ZM41.3998 21.7C41.3998 22.2 40.9998 22.6 40.4998 22.6H23.5998C23.0998 22.6 22.6998 22.2 22.6998 21.7V17.9C22.6998 17.4 23.0998 17 23.5998 17H40.4998C40.9998 17 41.3998 17.4 41.3998 17.9V21.7Z" fill="#D3976E"/>
<path opacity="0.5" d="M14.3 43.8C14.3 32.6 22.9001 23.5 33.9001 22.7C33.4001 22.7 32.8 22.6 32.3 22.6C21.8 22.6 13.3 31.1 13.3 41.7C13.3 44.8 14.1 47.8 15.4 50.4C14.7 48.3 14.3 46.1 14.3 43.8" fill="#3E4347"/>
<path opacity="0.33" d="M39.9001 57.3C49.2001 51.1 52 39 46.6 29.6L47.5 30.8C53.3 39.4 50.9001 51.1 42.2001 57C39.6001 58.8 36.7 59.8 33.8 60.1C36 59.5 38.0001 58.6 39.9001 57.3" fill="#FFCB04"/>
<path d="M23.6 18.9H29.2L17.9 2H11L23.6 18.9Z" fill="#EE1E23"/>
<path d="M29.1999 18.9H34.7999L23.5999 2H17.8999L29.1999 18.9Z" fill="#FFCB04"/>
<path opacity="0.5" d="M32.9001 4.8L30.1001 9L36.7001 18.9H40.4001L41.4001 17.5L32.9001 4.8Z" fill="#3E4347"/>
<path d="M34.8001 18.9H40.4001L29.2001 2H23.6001L34.8001 18.9Z" fill="#006737"/>
<path opacity="0.5" d="M31.4999 31.5C29.3999 31.5 27.6999 33.2 27.6999 35.2H24.9999C24.9999 35.5 24.8999 35.8 24.8999 36.1H28.6999C28.6999 34 30.3999 32.3 32.4999 32.3C33.2999 32.3 33.9999 32.6 34.5999 33C33.8999 32.2 32.7999 31.5 31.4999 31.5M37.3999 41.8C38.9999 40.4 39.9999 38.4 39.9999 36.2C39.9999 33.9 38.9999 31.8 37.2999 30.4C38.3999 31.7 39.0999 33.4 39.0999 35.2C39.0999 37.4 38.0999 39.5 36.4999 40.8C38.0999 42.2 39.0999 44.2 39.0999 46.4C39.0999 50.5 35.6999 53.9 31.5999 53.9C29.7999 53.9 28.0999 53.2 26.7999 52.1C28.1999 53.7 30.1999 54.8 32.5999 54.8C36.6999 54.8 40.0999 51.4 40.0999 47.3C39.9999 45.2 38.9999 43.2 37.3999 41.8" fill="#3E4347"/>
<path opacity="0.33" d="M32.5 28.7C34.3 28.7 36 29.4 37.3 30.5C35.9 28.9 33.9 27.8 31.5 27.8C27.4 27.8 24 31.2 24 35.3H25C25.5 31.6 28.6 28.7 32.5 28.7M36.2 36.2C36.2 34.9 35.6 33.8 34.6 33.1C35 33.7 35.3 34.4 35.3 35.2C35.3 37.3 33.6 39 31.5 39V42.8C31.8 42.8 32.1 42.9 32.4 42.9V40C34.5 40 36.2 38.3 36.2 36.2M32.5 51.2C34.6 51.2 36.3 49.5 36.3 47.4C36.3 46.1 35.7 45 34.7 44.3C35.1 44.9 35.4 45.6 35.4 46.4C35.4 48.5 33.7 50.2 31.6 50.2C30.8 50.2 30.1 49.9 29.5 49.5C30.1 50.6 31.2 51.2 32.5 51.2ZM27.9 47.5C27.8 47.2 27.8 46.9 27.8 46.6H24C24 48.9 25 51 26.7 52.4C25.6 51.1 24.9 49.4 24.9 47.6L27.9 47.5Z" fill="#FFCB04"/>
</svg>
